<svg width="16" height="17" viewBox="0 0 16 17" fill="none" xmlns="http://www.w3.org/2000/svg">
<g clip-path="url(#clip0_788_1510)">
<circle cx="8" cy="8.16992" r="7.5" stroke="black"/>
<path d="M8.79255 9.2934H7.12766V12.1699H5.5V4.16992H8.91489C9.70213 4.16992 10.3298 4.37616 10.7979 4.78865C11.266 5.20113 11.5 5.83975 11.5 6.70452C11.5 7.64889 11.266 8.31646 10.7979 8.70724C10.3298 9.09801 9.66135 9.2934 8.79255 9.2934ZM9.55851 7.62718C9.77128 7.43541 9.87766 7.13148 9.87766 6.71538C9.87766 6.29928 9.7695 6.00258 9.55319 5.82528C9.34043 5.64799 9.04078 5.55934 8.65426 5.55934H7.12766V7.91483H8.65426C9.04078 7.91483 9.3422 7.81895 9.55851 7.62718Z" fill="black"/>
</g>
<defs>
<clipPath id="clip0_788_1510">
<rect width="16" height="16" fill="white" transform="translate(0 0.169922)"/>
</clipPath>
</defs>
</svg>
