<svg width="16" height="17" viewBox="0 0 16 17" fill="none" xmlns="http://www.w3.org/2000/svg">
<path d="M2.66675 7.50293V6.83626C2.66675 4.32211 2.66675 3.06503 3.4478 2.28398C4.22885 1.50293 5.48592 1.50293 8.00008 1.50293C10.5142 1.50293 11.7713 1.50293 12.5524 2.28398C13.3334 3.06503 13.3334 4.32211 13.3334 6.83626V7.50293C13.3334 10.0171 13.3334 11.2742 12.5524 12.0552C11.7713 12.8363 10.5142 12.8363 8.00008 12.8363C5.48592 12.8363 4.22885 12.8363 3.4478 12.0552C2.66675 11.2742 2.66675 10.0171 2.66675 7.50293Z" stroke="#141B34" stroke-linejoin="round"/>
<path d="M2.66675 8.16992C2.66675 8.16992 5.15564 8.83659 8.00008 8.83659C10.8445 8.83659 13.3334 8.16992 13.3334 8.16992" stroke="#141B34" stroke-linejoin="round"/>
<path d="M4.66683 12.8359L3.3335 14.8359" stroke="#141B34" stroke-linecap="round" stroke-linejoin="round"/>
<path d="M11.3334 12.8359L12.6667 14.8359" stroke="#141B34" stroke-linecap="round" stroke-linejoin="round"/>
<path d="M3 10.8359H4.33333" stroke="#141B34" stroke-linecap="round"/>
<path d="M11.6667 10.8359H13.0001" stroke="#141B34" stroke-linecap="round"/>
<path d="M3.3335 3.50293L12.6668 3.50293" stroke="#141B34" stroke-linecap="round"/>
</svg>
