<svg width="1215" height="187" viewBox="0 0 1215 187" fill="none" xmlns="http://www.w3.org/2000/svg">
<path d="M232.891 74.9377C232.891 72.1275 231.968 70.2542 230.122 68.3808C229.2 67.444 228.277 67.444 227.354 67.444C227.354 67.444 216.28 93.6722 208.896 102.103C216.28 82.4315 219.971 59.9502 219.971 50.5829C221.816 11.2403 170.135 22.481 159.061 49.6462C147.063 71.1909 142.449 101.166 141.526 119.901H140.603C139.68 105.85 145.217 57.14 163.675 35.5952C145.217 14.0505 111.994 26.228 101.842 49.6462C90.7665 70.2542 86.152 98.3559 84.3067 119.901H83.3836C85.2297 83.3682 89.8442 58.0767 106.456 35.5952C49.237 -13.1147 18.7818 93.6722 52.9285 139.572C62.1574 152.686 87.0751 151.749 94.4587 140.509C94.4587 140.509 94.4587 139.572 95.381 139.572C97.2271 136.762 99.0731 133.952 99.9955 131.141C93.5356 103.04 95.381 82.4315 113.839 47.7727H114.762C113.839 49.6462 112.916 51.5196 111.994 53.3931C105.533 69.3175 100.919 88.9886 99.9955 107.723C99.0731 118.964 101.842 130.205 107.379 137.698C108.301 139.572 109.224 140.509 111.07 141.445C115.685 146.129 122.145 148.939 131.374 148.939C141.526 148.939 147.063 145.192 151.677 140.509L152.6 139.572C154.446 136.762 156.291 133.952 157.214 131.141C150.755 103.976 153.523 81.4948 171.058 47.7727H171.981C171.058 49.6462 170.135 51.5196 169.212 53.3931C162.752 69.3175 157.214 89.9253 157.214 107.723C156.291 118.964 159.061 130.205 164.597 137.698C165.52 139.572 167.366 140.509 168.29 141.445C186.747 157.37 211.665 141.445 220.894 120.837C227.354 107.723 232.891 90.8621 232.891 74.9377Z" fill="white"/>
<path d="M240.275 90.8619C243.043 76.811 243.966 59.9497 228.277 57.1395C237.505 18.7336 192.285 1.87253 166.444 24.354C153.523 11.2398 123.068 11.2398 109.225 24.354C32.6251 -28.1028 0.324113 122.711 57.543 155.496C66.7719 180.788 106.456 176.104 110.148 154.56C110.148 153.623 110.148 153.623 109.225 152.686C111.07 153.623 111.993 154.56 113.839 155.496C118.454 165.8 127.683 172.357 141.525 172.357C158.138 172.357 164.598 162.053 167.366 154.56V153.623C169.212 154.56 170.135 155.496 171.981 156.433C204.282 211.7 258.732 115.217 240.275 90.8619ZM232.891 79.6212C231.046 94.6088 226.431 108.66 219.971 122.711C210.742 143.319 185.824 159.243 167.366 143.319C166.444 142.382 164.598 140.509 163.675 139.572C158.138 132.078 155.369 120.837 156.292 109.597C156.292 90.8619 161.829 70.2537 168.289 55.2661C169.212 53.3926 170.135 51.5192 171.058 49.6457H170.135C152.6 83.3681 149.831 105.85 156.292 133.015C155.369 135.825 153.523 138.635 151.677 141.445L150.754 142.382C147.063 147.066 140.603 150.813 130.451 150.813C122.145 150.813 115.685 148.002 110.148 143.319C109.225 142.382 107.379 140.509 106.456 139.572C100.919 132.078 98.1497 120.837 99.0728 109.597C99.0728 91.7986 104.61 71.1905 111.07 55.2661C111.993 53.3926 112.916 51.5192 113.839 49.6457H112.916C95.3814 82.4314 93.5353 103.039 99.0728 131.141C98.1497 133.951 96.3044 136.762 94.4583 139.572C94.4583 139.572 94.4583 140.509 93.5353 140.509C85.2294 151.749 61.2346 152.686 52.0057 139.572C18.7818 93.6721 49.2371 -13.1152 106.456 35.5948C89.8438 58.0763 85.2294 83.3681 83.384 119.901H84.3071C86.1524 98.3558 90.7669 70.2537 101.842 49.6457C111.993 26.2275 146.14 14.05 163.675 35.5948C145.218 57.1395 139.68 105.85 140.603 119.901H141.525C143.371 101.166 147.063 70.2537 159.06 49.6457C169.212 22.4805 221.817 11.2398 219.971 50.5824C219.971 59.9497 217.202 82.4314 208.896 102.103C216.279 93.6721 227.354 67.4435 227.354 67.4435C228.277 67.4435 229.2 68.3803 230.123 68.3803C232.891 71.1905 232.891 75.8743 232.891 79.6212Z" fill="black"/>
<path d="M1030.53 123.805H1113.31V147.455H1000.06V41.3317H1111.64V64.982H1030.53V82.4166H1097.39V105.006H1030.53V123.805Z" fill="black"/>
<path d="M898.617 123.805H981.394V147.455H868.145V41.3317H979.726V64.982H898.617V82.4166H965.475V105.006H898.617V123.805Z" fill="black"/>
<path d="M853.374 41.3317V66.0433H809.257V147.455H778.329V66.0433H734.515V41.3317H853.374Z" fill="black"/>
<path d="M719.486 147.455H688.558V41.3317H719.486V147.455Z" fill="black"/>
<path d="M663.522 147.455H632.594V41.3317H663.522V147.455Z" fill="black"/>
<path d="M544.501 150.942C502.507 150.942 475.369 130.324 475.369 94.3936C475.369 58.4633 502.507 37.845 544.501 37.845C586.496 37.845 613.785 58.4633 613.785 94.3936C613.785 130.324 586.496 150.942 544.501 150.942ZM544.501 125.776C567.848 125.776 582.251 114.406 582.251 94.3936C582.251 74.3818 567.848 63.0114 544.501 63.0114C521.306 63.0114 506.751 74.3818 506.751 94.3936C506.751 114.406 521.154 125.776 544.501 125.776Z" fill="black"/>
<path d="M423.697 41.3317H456.595V147.455H425.82V79.6877L383.522 131.537H382.006L339.708 79.6877V147.455H309.842V41.3317H343.65L383.522 92.2709L423.697 41.3317Z" fill="black"/>
<circle cx="1152.9" cy="129.7" r="19.8154" stroke="black" stroke-width="3.6028"/>
<path d="M1165.15 139.149H1158.78L1153.8 133.208H1148.27V139.149H1142.81V120.333H1156.01C1160.82 120.333 1164.56 122.456 1164.56 126.757C1164.56 129.902 1162.57 131.891 1159.61 132.752L1165.15 139.149ZM1148.24 129.23H1155.6C1157.57 129.23 1158.99 128.693 1158.99 126.865C1158.99 125.037 1157.57 124.499 1155.6 124.499H1148.24V129.23Z" fill="black"/>
</svg>
