<svg width="18" height="19" viewBox="0 0 18 19" fill="none" xmlns="http://www.w3.org/2000/svg">
<path d="M15.75 14.5308V13.2963C15.75 12.683 15.3766 12.1314 14.8071 11.9036L13.2815 11.2934C12.5571 11.0036 11.7316 11.3175 11.3828 12.0152L11.25 12.2808C11.25 12.2808 9.375 11.9058 7.875 10.4058C6.375 8.90576 6 7.03076 6 7.03076L6.26551 6.89801C6.96328 6.54912 7.27714 5.72361 6.98741 4.99928L6.37717 3.47368C6.14937 2.90419 5.59781 2.53076 4.98445 2.53076H3.75C2.92157 2.53076 2.25 3.20233 2.25 4.03076C2.25 10.6582 7.62258 16.0308 14.25 16.0308C15.0784 16.0308 15.75 15.3592 15.75 14.5308Z" fill="#28303F"/>
</svg>
