<svg width="308" height="308" viewBox="0 0 308 308" fill="none" xmlns="http://www.w3.org/2000/svg">
<rect width="308" height="308" fill="#DC97E2"/>
<path d="M81.3605 70.5155L119.396 80.1664L150.052 66.5416L186.953 80.1664L226.124 68.2447L252.238 86.4111L255.644 116.499L270.405 127.853L265.863 168.728L229.53 231.742L192.062 218.117L169.922 230.039L125.641 218.117L104.069 230.039L62.6264 219.821L38.2153 185.759V143.749L52.9755 89.2496L81.3605 70.5155Z" fill="white" stroke="black"/>
<path d="M273.88 151.406C277.074 135.193 278.139 115.738 260.036 112.495C270.685 68.181 218.507 48.726 188.691 74.666C173.783 59.5343 138.643 59.5343 122.67 74.666C34.2858 14.1393 -2.98436 188.154 63.0371 225.983C73.6858 255.166 119.474 249.762 123.735 224.902C123.735 223.821 123.735 223.821 122.67 222.741C124.799 223.821 125.864 224.902 127.994 225.983C133.318 237.872 143.967 245.438 159.939 245.438C179.107 245.438 186.561 233.549 189.755 224.902V223.821C191.885 224.902 192.95 225.983 195.08 227.064C232.35 290.833 295.177 179.507 273.88 151.406ZM265.361 138.435C263.231 155.729 257.907 171.941 250.453 188.154C239.805 211.932 211.053 230.306 189.755 211.932C188.691 210.851 186.561 208.69 185.496 207.609C179.107 198.962 175.912 185.992 176.977 173.022C176.977 151.405 183.367 127.627 190.82 110.334C191.885 108.172 192.95 106.01 194.015 103.849H192.95C172.718 142.759 169.523 168.699 176.977 200.043C175.912 203.286 173.783 206.528 171.653 209.771L170.588 210.851C166.329 216.256 158.875 220.579 147.161 220.579C137.578 220.579 130.123 217.336 123.735 211.932C122.67 210.851 120.539 208.69 119.474 207.609C113.086 198.962 109.891 185.992 110.956 173.022C110.956 152.486 117.345 128.708 124.799 110.334C125.864 108.172 126.929 106.01 127.994 103.849H126.929C106.696 141.678 104.566 165.456 110.956 197.881C109.891 201.124 107.762 204.366 105.631 207.609C105.631 207.609 105.631 208.69 104.566 208.69C94.9827 221.66 67.2965 222.741 56.6479 207.609C18.3129 154.648 53.4534 31.4326 119.474 87.6361C100.307 113.576 94.9827 142.759 92.8535 184.911H93.9185C96.0477 160.052 101.372 127.627 114.151 103.849C125.864 76.8277 165.264 62.7768 185.496 87.6361C164.199 112.495 157.81 168.699 158.875 184.911H159.939C162.069 163.295 166.329 127.627 180.172 103.849C191.885 72.5044 252.583 59.5343 250.453 104.929C250.453 115.738 247.258 141.678 237.675 164.376C246.193 154.648 258.972 124.384 258.972 124.384C260.036 124.384 261.101 125.465 262.166 125.465C265.361 128.708 265.361 134.112 265.361 138.435Z" fill="black"/>
</svg>
