<svg width="30" height="20" viewBox="0 0 30 20" fill="none" xmlns="http://www.w3.org/2000/svg">
<path d="M29.2641 12.576C29.5681 16.224 26.9841 19.264 23.3361 19.568C19.7641 19.872 16.6481 17.592 16.3441 14.02C16.3441 14.02 14.5961 3.456 26.6801 0.947998L27.2881 2.31599C24.7041 2.99999 22.8041 4.596 22.8801 6.952V7.028C26.2241 6.952 28.9601 9.156 29.2641 12.576ZM13.8361 12.576C14.1401 16.224 11.5561 19.264 7.90814 19.568C4.33614 19.872 1.22014 17.592 0.916139 14.02C0.916139 14.02 -0.831861 3.456 11.2521 0.947998L11.8601 2.31599C9.27614 2.99999 7.37614 4.596 7.45214 6.952V7.028C10.7961 6.952 13.5321 9.156 13.8361 12.576Z" fill="black" fill-opacity="0.1"/>
</svg>
