<svg width="30" height="20" viewBox="0 0 30 20" fill="none" xmlns="http://www.w3.org/2000/svg">
<path d="M1.02427 8.01909C0.720273 4.37109 3.30427 1.33109 6.95227 1.02709C10.5243 0.723096 13.6403 3.00309 13.9443 6.57509C13.9443 6.57509 15.6923 17.1391 3.60827 19.6471L3.00027 18.2791C5.58427 17.5951 7.48427 15.9991 7.40827 13.6431C3.98827 13.6431 1.32827 11.5151 1.02427 8.01909ZM16.4523 8.01909C16.1483 4.37109 18.7323 1.33109 22.3803 1.02709C25.9523 0.723096 29.0683 3.00309 29.3723 6.57509C29.3723 6.57509 31.1203 17.1391 19.0363 19.6471L18.4283 18.2791C21.0123 17.5951 22.9123 15.9991 22.8363 13.6431C19.4163 13.6431 16.7563 11.5151 16.4523 8.01909Z" fill="black" fill-opacity="0.1"/>
</svg>
