<svg width="12" height="12" viewBox="0 0 12 12" fill="none" xmlns="http://www.w3.org/2000/svg">
<g clip-path="url(#clip0_117_82)">
<path d="M8.318 3.51401C8.25868 3.43538 8.18444 3.36921 8.09955 3.31927C8.01465 3.26933 7.92074 3.2366 7.82319 3.22295C7.72565 3.2093 7.62637 3.21499 7.53102 3.23971C7.43567 3.26443 7.34613 3.30769 7.2675 3.36701C7.18887 3.42634 7.1227 3.50057 7.07276 3.58547C7.02281 3.67037 6.99008 3.76427 6.97643 3.86182C6.96278 3.95937 6.96848 4.05865 6.9932 4.15399C7.01792 4.24934 7.06118 4.33888 7.1205 4.41751C7.46912 4.87327 7.66242 5.42879 7.672 6.00251C7.66231 6.5773 7.46868 7.13385 7.1195 7.59051C7.05831 7.66899 7.01336 7.75886 6.98725 7.85488C6.96114 7.9509 6.9544 8.05116 6.96742 8.14981C6.98044 8.24847 7.01296 8.34354 7.0631 8.4295C7.11323 8.51546 7.17996 8.59058 7.25941 8.6505C7.33886 8.71041 7.42944 8.75391 7.52587 8.77847C7.6223 8.80303 7.72266 8.80815 7.82109 8.79354C7.91952 8.77893 8.01406 8.74488 8.0992 8.69337C8.18434 8.64186 8.25838 8.57392 8.317 8.49351C8.86172 7.77653 9.16147 6.90339 9.172 6.00301C9.16165 5.10323 8.86225 4.23061 8.318 3.51401ZM10.183 2.34801C10.1214 2.26979 10.0449 2.20461 9.95791 2.15626C9.8709 2.10791 9.77514 2.07736 9.6762 2.0664C9.57727 2.05544 9.47714 2.06429 9.38166 2.09242C9.28618 2.12055 9.19725 2.16741 9.12006 2.23026C9.04287 2.29312 8.97897 2.3707 8.93207 2.45851C8.88518 2.54631 8.85623 2.64257 8.84692 2.74167C8.8376 2.84078 8.84811 2.94074 8.87783 3.03574C8.90754 3.13075 8.95587 3.21888 9.02 3.29501C9.64051 4.06277 9.98557 5.01646 10 6.00351C9.98632 6.9904 9.64115 7.94401 9.02 8.71101C8.89832 8.86563 8.84227 9.06187 8.86393 9.25742C8.8856 9.45298 8.98324 9.63219 9.13581 9.75642C9.28838 9.88066 9.48366 9.93996 9.67955 9.92155C9.87544 9.90315 10.0562 9.8085 10.183 9.65801C11.0267 8.62591 11.4917 7.33606 11.5005 6.00301C11.4913 4.67004 11.0264 3.38032 10.183 2.34801ZM5.7015 0.541514C5.61202 0.502688 5.51315 0.490853 5.41704 0.507464C5.32092 0.524075 5.23176 0.568409 5.1605 0.635014L2.6325 3.00001H1C0.867392 3.00001 0.740215 3.05269 0.646447 3.14646C0.552678 3.24023 0.5 3.36741 0.5 3.50001V8.50151C0.5 8.63412 0.552678 8.7613 0.646447 8.85507C0.740215 8.94884 0.867392 9.00151 1 9.00151H2.6325L5.1375 11.3425L5.1475 11.353C5.22056 11.4267 5.31474 11.4758 5.41697 11.4936C5.5192 11.5113 5.62442 11.4968 5.71805 11.4521C5.81167 11.4074 5.88907 11.3346 5.9395 11.244C5.98993 11.1533 6.0109 11.0491 5.9995 10.946L6.0025 1.00001C6.00246 0.902572 5.97395 0.807265 5.92048 0.725809C5.867 0.644352 5.79089 0.580296 5.7015 0.541514Z" fill="white"/>
</g>
<defs>
<clipPath id="clip0_117_82">
<rect width="12" height="12" fill="white"/>
</clipPath>
</defs>
</svg>
